<?xml version="1.0" encoding="utf-8"?>
<COLLADA xmlns="http://www.collada.org/2005/11/COLLADASchema" version="1.4.1" xmlns:xsi="http://www.w3.org/2001/XMLSchema-instance">
  <asset>
    <contributor>
      <author>Blender User</author>
      <authoring_tool>Blender 4.5.3 LTS commit date:2025-09-08, commit time:12:46, hash:67807e1800cc</authoring_tool>
    </contributor>
    <created>2025-10-21T11:06:46</created>
    <modified>2025-10-21T11:06:46</modified>
    <unit name="meter" meter="1"/>
    <up_axis>Z_UP</up_axis>
  </asset>
  <library_effects>
    <effect id="mat5-effect">
      <profile_COMMON>
        <technique sid="common">
          <lambert>
            <emission>
              <color sid="emission">0 0 0 1</color>
            </emission>
            <diffuse>
              <color sid="diffuse">0.627451 0.627451 0.627451 1</color>
            </diffuse>
            <index_of_refraction>
              <float sid="ior">1.5</float>
            </index_of_refraction>
          </lambert>
        </technique>
      </profile_COMMON>
    </effect>
    <effect id="mat2-effect">
      <profile_COMMON>
        <technique sid="common">
          <lambert>
            <emission>
              <color sid="emission">0 0 0 1</color>
            </emission>
            <diffuse>
              <color sid="diffuse">0.9568627 0.9568627 0.9607843 1</color>
            </diffuse>
            <index_of_refraction>
              <float sid="ior">1.5</float>
            </index_of_refraction>
          </lambert>
        </technique>
      </profile_COMMON>
    </effect>
    <effect id="mat4-effect">
      <profile_COMMON>
        <technique sid="common">
          <lambert>
            <emission>
              <color sid="emission">0 0 0 1</color>
            </emission>
            <diffuse>
              <color sid="diffuse">0.2470588 0.4156863 0.4784314 1</color>
            </diffuse>
            <index_of_refraction>
              <float sid="ior">1.5</float>
            </index_of_refraction>
          </lambert>
        </technique>
      </profile_COMMON>
    </effect>
    <effect id="mat3-effect">
      <profile_COMMON>
        <technique sid="common">
          <lambert>
            <emission>
              <color sid="emission">0 0 0 1</color>
            </emission>
            <diffuse>
              <color sid="diffuse">0.9882353 0.8313726 0.2745098 1</color>
            </diffuse>
            <index_of_refraction>
              <float sid="ior">1.5</float>
            </index_of_refraction>
          </lambert>
        </technique>
      </profile_COMMON>
    </effect>
    <effect id="mat1-effect">
      <profile_COMMON>
        <technique sid="common">
          <lambert>
            <emission>
              <color sid="emission">0 0 0 1</color>
            </emission>
            <diffuse>
              <color sid="diffuse">0.2392157 0.254902 0.2901961 1</color>
            </diffuse>
            <index_of_refraction>
              <float sid="ior">1.5</float>
            </index_of_refraction>
          </lambert>
        </technique>
      </profile_COMMON>
    </effect>
    <effect id="mat0-effect">
      <profile_COMMON>
        <technique sid="common">
          <lambert>
            <emission>
              <color sid="emission">0 0 0 1</color>
            </emission>
            <diffuse>
              <color sid="diffuse">0.6431373 0.7647059 0.8156863 1</color>
            </diffuse>
            <index_of_refraction>
              <float sid="ior">1.5</float>
            </index_of_refraction>
          </lambert>
        </technique>
      </profile_COMMON>
    </effect>
  </library_effects>
  <library_images/>
  <library_materials>
    <material id="mat5-material" name="mat5">
      <instance_effect url="#mat5-effect"/>
    </material>
    <material id="mat2-material" name="mat2">
      <instance_effect url="#mat2-effect"/>
    </material>
    <material id="mat4-material" name="mat4">
      <instance_effect url="#mat4-effect"/>
    </material>
    <material id="mat3-material" name="mat3">
      <instance_effect url="#mat3-effect"/>
    </material>
    <material id="mat1-material" name="mat1">
      <instance_effect url="#mat1-effect"/>
    </material>
    <material id="mat0-material" name="mat0">
      <instance_effect url="#mat0-effect"/>
    </material>
  </library_materials>
  <library_geometries>
    <geometry id="imagetostl_mesh5_001-mesh" name="imagetostl_mesh5.001">
      <mesh>
        <source id="imagetostl_mesh5_001-mesh-positions">
          <float_array id="imagetostl_mesh5_001-mesh-positions-array" count="12">-537.9353 876.0471 -47.25911 -544.5621 1241.047 -37.90976 -542.0853 876.0471 -29.50209 -529.3272 1241.047 -48.51166</float_array>
          <technique_common>
            <accessor source="#imagetostl_mesh5_001-mesh-positions-array" count="4" stride="3">
              <param name="X" type="float"/>
              <param name="Y" type="float"/>
              <param name="Z" type="float"/>
            </accessor>
          </technique_common>
        </source>
        <source id="imagetostl_mesh5_001-mesh-normals">
          <float_array id="imagetostl_mesh5_001-mesh-normals-array" count="6">0.5711677 -0.01065373 0.8207643 0.973692 0.0118491 0.2275599</float_array>
          <technique_common>
            <accessor source="#imagetostl_mesh5_001-mesh-normals-array" count="2" stride="3">
              <param name="X" type="float"/>
              <param name="Y" type="float"/>
              <param name="Z" type="float"/>
            </accessor>
          </technique_common>
        </source>
        <vertices id="imagetostl_mesh5_001-mesh-vertices">
          <input semantic="POSITION" source="#imagetostl_mesh5_001-mesh-positions"/>
        </vertices>
        <triangles material="mat5-material" count="2">
          <input semantic="VERTEX" source="#imagetostl_mesh5_001-mesh-vertices" offset="0"/>
          <input semantic="NORMAL" source="#imagetostl_mesh5_001-mesh-normals" offset="1"/>
          <p>0 0 3 0 1 0 2 1 0 1 1 1</p>
        </triangles>
      </mesh>
    </geometry>
    <geometry id="imagetostl_mesh2_001-mesh" name="imagetostl_mesh2.001">
      <mesh>
        <source id="imagetostl_mesh2_001-mesh-positions">
          <float_array id="imagetostl_mesh2_001-mesh-positions-array" count="60">-540.4528 877.3452 -12.53547 -324.2519 888.8403 -312.16 -335.3696 877.5672 -248.1704 -524.3117 877.6449 -64.12477 -536.2376 887.9213 -312.7338 -311.8481 877.2129 -88.56007 -72.28644 876.8944 -8.734422 -507.5833 909.593 -307.863 -351.5816 909.5938 -308.1462 -49.20443 862.0471 0.597871 -541.0019 1246.72 -10.58861 -524.0603 1246.5 -64.08227 -536.5224 1235.759 -312.4049 -313.6954 1247.166 -88.99794 -266.2676 1243.847 -80.4528 -72.46448 1247.08 -8.756321 -325.241 1234.154 -311.8673 -335.2774 1246.927 -248.2275 -507.5845 1214.604 -308.3478 -49.20443 1262.047 0.597871</float_array>
          <technique_common>
            <accessor source="#imagetostl_mesh2_001-mesh-positions-array" count="20" stride="3">
              <param name="X" type="float"/>
              <param name="Y" type="float"/>
              <param name="Z" type="float"/>
            </accessor>
          </technique_common>
        </source>
        <source id="imagetostl_mesh2_001-mesh-normals">
          <float_array id="imagetostl_mesh2_001-mesh-normals-array" count="54">0.008729755 0.9999254 0.008544206 -0.4750804 0.8769951 0.07195985 0.19852 0.9587596 0.2033959 0.09791576 0.9945284 0.03641247 -0.001701235 -0.217145 0.9761379 0.001784443 -0.187622 0.9822397 0.3142727 -0.1045048 -0.9435632 0.3134654 -0.1043878 -0.9438447 -0.001823067 -0.1922007 0.9813539 0.001771152 -0.2215151 0.9751554 0.1060168 -0.9936511 0.03765684 -0.1371763 -0.901067 0.4114136 0.009070932 -0.9999346 0.006979763 -0.5602548 -0.8247175 0.07717341 0.2220233 -0.9486284 0.2254108 -0.001078903 0.1869238 0.9823738 0.3458548 0.04815649 -0.9370515 0.3441635 0.047921 -0.937686</float_array>
          <technique_common>
            <accessor source="#imagetostl_mesh2_001-mesh-normals-array" count="18" stride="3">
              <param name="X" type="float"/>
              <param name="Y" type="float"/>
              <param name="Z" type="float"/>
            </accessor>
          </technique_common>
        </source>
        <vertices id="imagetostl_mesh2_001-mesh-vertices">
          <input semantic="POSITION" source="#imagetostl_mesh2_001-mesh-positions"/>
        </vertices>
        <triangles material="mat2-material" count="16">
          <input semantic="VERTEX" source="#imagetostl_mesh2_001-mesh-vertices" offset="0"/>
          <input semantic="NORMAL" source="#imagetostl_mesh2_001-mesh-normals" offset="1"/>
          <p>0 0 2 0 3 0 5 1 1 1 2 1 1 2 3 2 2 2 4 3 0 3 3 3 1 4 7 4 4 4 8 5 7 5 1 5 9 6 5 6 6 7 4 8 1 8 8 8 4 9 8 9 7 9 10 10 12 10 11 10 14 11 15 11 13 11 17 12 10 12 11 12 16 13 13 13 17 13 11 14 16 14 17 14 18 15 16 15 12 15 14 16 19 16 15 17</p>
        </triangles>
      </mesh>
    </geometry>
    <geometry id="imagetostl_mesh4_001-mesh" name="imagetostl_mesh4.001">
      <mesh>
        <source id="imagetostl_mesh4_001-mesh-positions">
          <float_array id="imagetostl_mesh4_001-mesh-positions-array" count="171">-160.5501 1279.188 -650.6856 -475.8141 1279.067 -651.3004 -160.5403 844.9058 -650.698 -475.8043 845.0211 -651.5974 -167.2028 862.923 -382.5368 -173.0628 952.4348 -397.1211 -182.4926 1062.722 -394.8645 -174.7225 1167.03 -399.2328 -170.1203 1261.325 -384.8849 -165.205 889.5726 -415.7295 -149.5777 867.3623 -515.549 -185.5649 1211.565 -398.8956 -159.7326 1249.88 -442.8821 -72.12868 883.1582 -1053.198 -70.77954 1236.716 -1061.94 -78.32888 1255.919 -1010.288 -150.979 1234.696 -1052.912 -145.6078 891.2047 -1061.626 -137.877 1061.628 -1068.347 -140.1919 999.6831 -1059.091 -136.2575 1133.737 -1064.664 -161.8259 875.7223 -1016.773 -176.8735 868.7338 -773.7526 -211.8364 869.0316 -526.8471 -167.2701 871.6516 -867.3327 -219.2407 884.2314 -428.9849 -220.7639 1240.604 -424.4552 -202.191 915.1244 -401.1138 -216.6304 1249.774 -496.2337 -167.645 1252.062 -858.4736 -208.097 1253.912 -557.5958 -182.634 1253.839 -733.6821 -167.1778 1245.306 -968.7116 -199.6115 1178.443 -474.1433 -193.0276 944.6641 -546.4207 -142.6765 1162.769 -869.568 -136.9551 978.9896 -883.148 -583.6068 1259.916 -356.4799 -584.6943 867.5568 -375.3475 -599.6763 896.4994 -328.2167 -599.9445 1224.341 -328.2282 -229.8132 870.8777 -357.9445 -228.6442 1252.613 -357.8416 -213.5004 1074.877 -419.4946 -261.1832 864.4542 -420.6857 -562.8137 872.9509 -414.2807 -407.4262 863.9208 -420.488 -585.0317 1248.283 -405.8074 -593.4013 1147.277 -400.1561 -593.92 1021.718 -399.2393 -531.0902 1256.32 -422.8886 -260.1076 1260.043 -419.9942 -395.3522 1260.591 -419.802 -295.9975 947.7294 -396.6049 -216.142 1169.668 -421.0412 -295.0769 1174.093 -396.817 -554.3812 1182.394 -416.6089</float_array>
          <technique_common>
            <accessor source="#imagetostl_mesh4_001-mesh-positions-array" count="57" stride="3">
              <param name="X" type="float"/>
              <param name="Y" type="float"/>
              <param name="Z" type="float"/>
            </accessor>
          </technique_common>
        </source>
        <source id="imagetostl_mesh4_001-mesh-normals">
          <float_array id="imagetostl_mesh4_001-mesh-normals-array" count="492">0.3630264 0.01197606 0.931702 0.9872075 0.08312582 0.1360564 0.9790533 -0.01261299 0.2032134 0.8440827 0.04438358 0.5343732 0.9897844 -2.51946e-4 0.1425722 0.9896851 7.84319e-4 0.1432586 0.9896804 8.72976e-4 0.1432902 0.9898102 -1.9462e-4 0.1423927 0.9898658 -6.98226e-4 0.142005 -0.04003971 0.05186456 -0.9978512 0.468513 -0.1476706 -0.8710275 0.1158143 0.01742929 -0.9931179 0.1174353 0.0129705 -0.9929959 0.1148993 0.02050769 -0.9931654 0.04151332 -0.02475005 -0.9988314 0.04390537 -0.0248599 -0.9987264 -0.1143229 0.09837836 -0.9885606 -0.1146422 0.09827351 -0.988534 -0.1137612 0.09849035 -0.9886143 -0.06284749 -0.9361725 -0.3458777 -0.06206679 -0.936092 -0.3462362 -0.02556693 -0.9996523 0.006453156 -0.03247147 -0.9994722 0.00104624 -0.03321975 -0.9994451 0.002441942 -0.9116205 0.3900799 -0.1295597 -0.9608477 -0.2557584 -0.1065807 -0.06377905 -0.9762118 0.2072263 0.05878806 -0.985759 0.1575537 0.05986547 -0.9859536 0.1559214 0.05948173 -0.9859249 0.15625 0.1218156 -0.9923936 -0.01777648 0.1231971 -0.9922136 -0.01829367 0.1185982 -0.9927877 -0.01752489 0.09150403 -0.9957371 -0.01160562 0.08807682 -0.9959759 -0.01657366 0.07230544 -0.9971086 -0.02337926 0.07270157 -0.9970526 -0.02450895 -0.07413709 -0.0104075 -0.9971938 -0.07461231 -0.01046401 -0.9971577 -0.07365965 -0.01038289 -0.9972294 0.1975054 -0.255473 0.9464276 -0.1272184 -0.6247921 0.7703574 -0.7578123 0.6149594 -0.2180496 -0.7558384 0.6171008 -0.2188494 -0.7583709 0.6124405 -0.2231374 -0.6667523 -0.1701395 0.725599 -0.6661375 -0.168114 0.7266351 -0.6660801 -0.1676645 0.7267915 0.09734815 0.7214436 0.6855964 -0.1138437 0.986293 0.1194397 -0.2212856 0.9694797 -0.1055553 -0.06358712 0.9979074 -0.01173061 -0.1892729 0.9784473 -0.08256471 -0.06355512 0.9323561 -0.3559116 -0.06447935 0.9313808 -0.3582909 -0.9864957 -0.08053916 -0.1426177 0.1362217 0.9906749 0.002612233 0.1386902 0.9903326 0.00255692 -0.03426033 0.9993947 0.006046354 -0.06361931 0.9961367 0.06053394 -0.05191719 0.9966722 0.06284302 -0.05739647 0.9965934 0.05922311 0.06367701 0.9979096 0.01103281 0.06443881 0.9978804 0.009077191 0.06187397 0.9980675 0.005736887 0.3252238 0.9439373 -0.05667471 0.3248128 0.9440904 -0.05648124 -0.8597218 -0.4634833 0.2146196 -0.8596777 -0.4634386 0.2148928 -0.8577892 -0.4667113 0.2153568 -0.9628197 -0.2546352 -0.090218 -0.9625204 -0.2563529 -0.08853179 -0.9623886 -0.2569456 -0.08824592 -0.9843841 -0.03333622 0.1728492 -0.9440776 0.08606112 0.3182939 -0.9756554 0.005731284 0.2192342 -0.990736 -0.0647999 0.1193451 -0.9867985 -0.08716684 0.1364945 -0.9861129 -0.09504109 0.136193 -0.9895676 0.01790642 -0.1429527 -0.989737 0.02713686 -0.1403008 -0.9894757 0.0193414 -0.1434009 -0.8432086 0.5314642 0.0809018 -0.842366 0.5322868 0.08420437 -0.8430588 0.5310465 0.08509695 -0.9616089 -0.2742655 0.009314954 -0.9625784 -0.2707147 0.01251041 -0.9624438 -0.2712129 0.01206243 -0.9863978 0.1425639 -0.08182334 -0.9771778 0.1671401 -0.1311023 -0.985808 -0.02484625 -0.1660281 -0.9615721 -0.2743991 0.009194493 -0.9643655 0.2522529 -0.0797981 -0.9742836 0.1892385 -0.1223119 -0.9991259 -0.03011125 -0.02899599 -0.9991714 -0.02899599 -0.02855968 -0.99537 0.09169912 0.02880716 -0.9992011 0.03046977 0.025864 -0.9770224 0.2122364 0.01957678 -0.9448946 0.05471915 -0.3227695 -0.955236 -0.2672246 -0.1269457 -0.8011612 0.5892337 -0.1046152 -0.9606187 -0.2461228 -0.1289781 -0.9587308 -0.2495298 -0.1362731 -0.9584031 -0.2522635 -0.1335161 -0.9968637 0.02741682 -0.07423722 -0.9969048 0.02617543 -0.07413291 -0.9773547 -0.1224249 -0.1725984 -0.7495539 0.4315568 -0.5019243 0.9485113 -0.02061927 0.3160716 -0.4469604 -0.8930554 -0.05175316 0.8652766 7.25557e-4 0.5012942 0.8655158 7.71702e-4 0.5008813 0.86528 0.001061022 0.5012876 0.00284326 -0.04803973 0.9988414 -0.04897928 -1.19178e-4 0.9987999 0.9690673 -0.003034114 0.2467783 0.8435 0.006572008 -0.5370889 0.9894207 -0.0367769 0.1403366 0.9912338 -0.0418123 0.1253291 0.9909467 0.05302679 0.1233413 0.9928328 0.0502755 0.1084232 -0.6461969 -0.004965126 0.7631546 0.4059929 -0.9072187 -0.110109 -0.003079235 0.5299336 -0.8480335 0.008667886 -0.9949429 0.1000673 0.002219557 -0.9951727 0.09811365 0.003764092 -0.9949815 0.09998804 -0.06400197 -0.9829874 -0.1721616 0.004721403 -0.9948484 0.101264 -0.8968098 -0.04772126 -0.4398353 -0.7997238 -9.97496e-4 -0.6003674 -0.8309607 -0.01683449 -0.5560765 -0.4820774 -0.008886635 -0.8760836 -0.9252856 0.3740114 -0.06294447 -0.9264321 0.3711801 -0.06283992 -0.9247338 0.3755545 -0.0618593 -0.9959393 -0.001470565 -0.09001505 -0.9833543 0.07215183 -0.1667593 -0.2067714 0.9531484 -0.2208027 -0.0986334 0.988856 -0.1115135 -0.0696991 0.9916142 -0.1088282 0.00110054 0.5625984 -0.8267296 0.00711441 0.2373167 -0.9714063 0.4301353 0.8959603 -0.1106299 0.008384823 0.9982831 0.05796998 0.006535291 0.9950461 0.09920006 0.003665983 0.9932501 0.1159348 -0.2652713 0.1638553 -0.9501487 -0.3674386 0.02985876 -0.9295684 -0.01274096 0.2728478 -0.9619728 -0.2933689 2.97651e-4 -0.9559993 -0.2960975 -0.06515365 -0.952933 -0.2963293 -0.06291389 -0.9530115 -0.2960609 -0.06386363 -0.9530318 0.07571941 -0.001627326 -0.9971279 0.06769329 -2.0348e-4 -0.9977062 0.07038229 1.44046e-5 -0.9975202 0.07606637 -0.001243352 -0.997102 -0.02301639 -0.3615877 -0.932054 -0.02948921 -0.3622357 -0.93162 0.07226306 -0.1070014 -0.9916294 -0.3288273 0.001855194 -0.9443883 -0.3038606 0.01481384 -0.9526014</float_array>
          <technique_common>
            <accessor source="#imagetostl_mesh4_001-mesh-normals-array" count="164" stride="3">
              <param name="X" type="float"/>
              <param name="Y" type="float"/>
              <param name="Z" type="float"/>
            </accessor>
          </technique_common>
        </source>
        <vertices id="imagetostl_mesh4_001-mesh-vertices">
          <input semantic="POSITION" source="#imagetostl_mesh4_001-mesh-positions"/>
        </vertices>
        <triangles material="mat4-material" count="98">
          <input semantic="VERTEX" source="#imagetostl_mesh4_001-mesh-vertices" offset="0"/>
          <input semantic="NORMAL" source="#imagetostl_mesh4_001-mesh-normals" offset="1"/>
          <p>7 0 6 0 5 0 9 1 10 1 5 1 10 2 12 2 5 2 5 3 12 3 11 3 13 4 14 5 10 6 14 5 15 7 10 6 10 6 15 7 12 8 18 9 20 9 14 9 19 10 18 10 14 10 19 11 13 12 17 13 19 14 14 15 13 15 20 16 16 17 14 18 17 19 13 20 21 19 22 21 10 22 23 23 22 24 23 24 25 24 22 25 25 25 24 25 10 26 9 26 23 26 23 27 9 28 25 29 24 30 10 31 22 32 24 33 13 34 10 34 24 35 21 36 13 36 5 37 11 38 7 39 27 40 9 40 5 40 27 41 25 41 9 41 27 42 5 43 25 44 11 45 26 46 7 47 26 48 11 48 12 48 28 49 26 49 12 49 16 50 29 51 15 52 14 53 16 54 15 53 31 55 28 55 30 55 29 56 31 57 12 57 29 51 12 58 15 52 30 59 28 60 12 61 30 62 12 63 31 64 16 65 32 66 29 66 33 67 7 68 26 69 33 70 26 71 28 72 6 73 7 74 33 75 34 76 6 73 33 75 5 77 6 77 34 78 35 79 34 80 33 81 25 82 5 83 34 84 35 85 29 86 32 87 36 88 34 89 35 90 20 91 35 85 32 87 24 92 25 93 34 89 36 94 35 95 20 95 19 96 36 88 20 97 21 98 36 88 19 96 21 99 19 99 17 99 28 100 35 100 33 100 29 101 28 101 31 101 29 102 35 103 28 104 19 105 20 106 18 106 24 92 36 88 21 98 36 88 24 92 34 89 32 107 16 107 20 107 38 108 37 109 39 110 37 111 40 112 39 113 38 114 42 114 37 114 41 115 42 115 38 115 43 116 42 116 41 116 43 117 41 118 25 119 26 120 42 121 43 117 54 122 43 117 25 119 26 120 43 117 54 122 44 123 25 123 41 123 46 124 45 124 44 124 41 125 46 126 44 127 46 128 38 128 45 128 41 125 38 129 46 126 45 130 38 108 39 110 48 131 45 130 49 132 48 131 47 133 45 130 47 134 40 135 37 136 49 132 45 130 39 110 49 132 39 110 40 137 48 131 49 132 40 137 47 138 48 138 40 138 47 139 37 140 50 141 51 142 50 142 52 142 51 143 26 143 50 143 51 144 42 144 26 144 52 145 42 146 51 147 37 140 42 146 52 145 50 141 37 140 52 145 53 148 25 148 44 148 54 149 25 149 53 149 45 150 53 150 44 150 55 151 54 151 53 151 26 152 54 153 55 154 56 155 53 156 45 157 56 155 55 158 53 156 50 159 26 159 55 160 50 161 55 161 56 161 56 162 45 162 47 162 50 163 56 163 47 163</p>
        </triangles>
      </mesh>
    </geometry>
    <geometry id="imagetostl_mesh3_001-mesh" name="imagetostl_mesh3.001">
      <mesh>
        <source id="imagetostl_mesh3_001-mesh-positions">
          <float_array id="imagetostl_mesh3_001-mesh-positions-array" count="51">-563.5623 1262.047 -339.2439 -298.2498 1262.047 -316.2933 -222.0092 1262 -424.4849 -181.7655 1262.044 -353.3572 -156.0276 1273.53 -638.4863 -473.2657 1280.89 -644.7289 -156.577 849.4084 -641.2985 -473.013 844.923 -645.2111 -563.5623 862.0469 -339.2439 -298.2498 862.0471 -316.2933 -234.6437 862.0471 -433.7374 -181.8146 862.0331 -353.3824 -70.83232 1244.733 -1059.103 -70.49599 881.8682 -1061.417 -151.5633 905.347 -516.4682 -167.5002 987.8091 -394.6407 -166.2203 1174.979 -396.8304</float_array>
          <technique_common>
            <accessor source="#imagetostl_mesh3_001-mesh-positions-array" count="17" stride="3">
              <param name="X" type="float"/>
              <param name="Y" type="float"/>
              <param name="Z" type="float"/>
            </accessor>
          </technique_common>
        </source>
        <source id="imagetostl_mesh3_001-mesh-normals">
          <float_array id="imagetostl_mesh3_001-mesh-normals-array" count="78">-3.53516e-5 -1 4.15581e-4 7.7634e-5 -0.9999999 4.93926e-4 8.17958e-6 -1 4.45766e-4 1.48947e-4 -0.9999999 5.43375e-4 0.06219971 -0.997465 -0.03456664 8.33167e-5 1 4.53055e-5 -4.39509e-7 1 0 4.01405e-5 1 2.19506e-5 1.45068e-4 1 7.87082e-5 0.0589357 0.9975163 -0.03857326 0.01894938 0.9996712 -0.01727682 0.03461766 0.9993553 -0.009523689 0.0330339 0.9992675 -0.01931929 -0.9812691 0.1172655 -0.152839 -0.9815995 0.1168097 -0.1510562 -0.9891153 2.18117e-5 -0.147143 -0.978472 -0.07505524 -0.1922479 -0.9782741 -0.07580941 -0.1929581 0.7419242 -0.6414778 0.1950761 0.7420667 -0.6415697 0.1942301 -0.9842336 0.05710077 -0.1674032 -0.9940133 -0.04504233 -0.09954422 -0.9935811 -0.04549413 -0.1035708 -0.9944288 -0.04285132 -0.09630709 -0.9991974 0.006370425 -0.03954672 -0.7698831 -0.5789238 -0.2685654</float_array>
          <technique_common>
            <accessor source="#imagetostl_mesh3_001-mesh-normals-array" count="26" stride="3">
              <param name="X" type="float"/>
              <param name="Y" type="float"/>
              <param name="Z" type="float"/>
            </accessor>
          </technique_common>
        </source>
        <vertices id="imagetostl_mesh3_001-mesh-vertices">
          <input semantic="POSITION" source="#imagetostl_mesh3_001-mesh-positions"/>
        </vertices>
        <triangles material="mat3-material" count="15">
          <input semantic="VERTEX" source="#imagetostl_mesh3_001-mesh-vertices" offset="0"/>
          <input semantic="NORMAL" source="#imagetostl_mesh3_001-mesh-normals" offset="1"/>
          <p>0 0 2 1 1 2 1 2 2 1 3 3 2 4 4 4 3 4 10 5 8 6 9 7 10 5 9 7 11 8 6 9 10 9 11 9 2 10 3 11 12 12 14 13 13 14 11 14 12 15 13 15 14 15 4 16 12 17 14 17 4 18 2 19 12 19 14 20 11 20 15 20 15 21 4 22 14 23 4 24 15 24 16 24 4 25 16 25 2 25</p>
        </triangles>
      </mesh>
    </geometry>
    <geometry id="imagetostl_mesh1_001-mesh" name="imagetostl_mesh1.001">
      <mesh>
        <source id="imagetostl_mesh1_001-mesh-positions">
          <float_array id="imagetostl_mesh1_001-mesh-positions-array" count="99">-165.2015 1288.791 -404.7467 -243.5922 1271.355 -294.8294 -184.8608 1271.419 -339.1715 -154.0109 1280.905 -637.7962 -131.16 1280.573 -635.6209 -139.5561 1275.283 -650.1442 -593.2246 1271.273 -308.6171 -556.581 1265.508 -412.7233 -581.5262 1263.31 -395.4803 -254.029 1278.691 -417.7803 -221.3509 1275.696 -437.0514 -581.1759 1287.454 -291.7398 -591.6799 1280.224 -360.2294 -543.1353 1261.764 -325.5852 -319.1423 1261.755 -324.0567 -470.8026 1279.011 -643.3991 -470.7999 845.0829 -643.6929 -136.3926 846.1614 -638.6626 -159.5056 845.603 -638.4063 -142.8793 833.0808 -659.0044 -174.9075 853.3585 -355.6097 -250.5247 852.569 -293.9639 -149.1033 832.512 -617.1139 -206.0653 861.9628 -314.5743 -585.5681 853.7731 -300.1973 -580.549 860.0535 -397.4177 -553.6166 859.3649 -413.3215 -216.029 848.4807 -445.6857 -247.6367 846.6729 -420.5237 -592.2709 843.5661 -358.9989 -598.8383 834.0452 -311.0783 -542.588 862.3497 -326.4071 -318.1873 862.3212 -324.342</float_array>
          <technique_common>
            <accessor source="#imagetostl_mesh1_001-mesh-positions-array" count="33" stride="3">
              <param name="X" type="float"/>
              <param name="Y" type="float"/>
              <param name="Z" type="float"/>
            </accessor>
          </technique_common>
        </source>
        <source id="imagetostl_mesh1_001-mesh-normals">
          <float_array id="imagetostl_mesh1_001-mesh-normals-array" count="150">-0.8337101 0.5477427 0.07003825 0.01168078 0.999486 0.02985692 -0.1920582 0.9793479 -0.06317704 -0.9261514 -0.3659632 -0.09118407 0.9132323 0.1221909 -0.3886851 -0.2775464 0.955519 0.09975695 0.09452319 0.9937878 0.05874675 -0.02751404 -0.7116788 0.7019661 -0.405263 0.773226 -0.4877331 -0.04652434 0.9533209 -0.2983534 -0.4896008 -0.8511599 -0.1892567 -0.4867143 -0.8540217 -0.183728 -0.4904866 -0.8512315 -0.1866222 0.04838252 0.9291958 -0.3664073 -0.01030498 0.9666898 0.2557435 -0.001849532 -0.9109358 0.4125441 0.003559947 0.938951 -0.3440326 -0.01191806 0.7801638 0.6254618 0.00544393 0.8403018 -0.5420917 -0.02634119 0.844618 -0.5347212 0.8290949 -0.5591022 0.002544045 0.03862804 -0.9852632 0.1666264 -0.6181788 -0.7674682 -0.1698462 0.8950018 -0.2457005 0.3722943 -0.820509 0.5716055 -0.00568366 -0.8210203 0.5708727 -0.005506753 -0.8202593 0.5719669 -0.005347907 0.3823383 -0.8023482 0.4583176 0.3820313 -0.8024821 0.4583392 0.3862557 -0.7998582 0.4593839 -0.287616 -0.8451931 -0.4504728 -0.04668015 -0.9497727 -0.3094395 0.0146377 -0.8485757 -0.5288715 0.01224833 -0.8466061 -0.5320791 0.019158 -0.8480555 -0.5295611 0.2458953 0.9682458 0.04511904 -0.1232926 0.9917122 -0.03613889 -0.3440417 0.9251435 0.1604518 0.8925929 -0.4337797 0.1229353 0.04095625 0.9984801 0.0368824 -0.05362278 0.9984057 -0.01762562 0.04650944 0.9975968 0.0513578 -0.0412293 -0.9976622 -0.05450111 0.01830768 -0.996146 -0.08577841 0.02271997 -0.9981518 -0.05636411 -0.1800152 0.8905001 -0.4178565 -0.01303988 0.9945957 -0.1030017 0.06821221 -0.9946717 -0.07730036 0.08339917 -0.9865883 -0.1403144 -0.1102968 -0.9937184 -0.01893508</float_array>
          <technique_common>
            <accessor source="#imagetostl_mesh1_001-mesh-normals-array" count="50" stride="3">
              <param name="X" type="float"/>
              <param name="Y" type="float"/>
              <param name="Z" type="float"/>
            </accessor>
          </technique_common>
        </source>
        <vertices id="imagetostl_mesh1_001-mesh-vertices">
          <input semantic="POSITION" source="#imagetostl_mesh1_001-mesh-positions"/>
        </vertices>
        <triangles material="mat1-material" count="34">
          <input semantic="VERTEX" source="#imagetostl_mesh1_001-mesh-vertices" offset="0"/>
          <input semantic="NORMAL" source="#imagetostl_mesh1_001-mesh-normals" offset="1"/>
          <p>12 0 6 0 11 0 4 1 3 1 10 1 4 2 10 2 0 2 6 3 12 3 8 3 0 4 9 5 2 6 1 7 11 7 6 7 7 8 8 8 12 8 9 9 7 9 12 9 10 10 3 11 5 12 5 13 3 13 4 13 4 14 3 14 15 14 15 15 5 15 3 15 15 16 4 16 5 16 18 17 17 17 16 17 19 18 16 18 17 18 18 19 17 19 19 19 30 20 29 20 24 20 29 21 28 21 24 21 27 22 18 22 22 22 22 23 17 23 27 23 29 24 24 25 25 26 23 27 21 28 20 29 25 30 26 30 29 30 26 31 28 31 29 31 17 32 22 33 18 34 11 35 1 36 2 37 0 4 2 6 4 38 9 39 11 40 2 41 28 42 27 43 20 44 0 4 10 45 9 5 9 39 12 46 11 40 27 43 17 47 20 44 20 44 21 48 28 42 21 48 24 49 28 42</p>
        </triangles>
      </mesh>
    </geometry>
    <geometry id="imagetostl_mesh0_001-mesh" name="imagetostl_mesh0.001">
      <mesh>
        <source id="imagetostl_mesh0_001-mesh-positions">
          <float_array id="imagetostl_mesh0_001-mesh-positions-array" count="81">-582.2513 872.5712 -344.2632 -582.6981 1251.901 -344.7664 -594.6045 898.4268 -322.0977 -594.5669 1226.098 -322.5992 -594.8478 1173.271 -320.1757 -223.8071 877.6301 -353.5016 -296.5039 868.4052 -354.1138 -491.0206 866.7421 -356.4677 -222.0951 1245.377 -353.4718 -257.0692 1257.025 -354.532 -494.639 1257.31 -356.4039 -211.9511 952.4762 -346.7345 -319.8283 1254.322 -353.1585 -596.016 983.7828 -321.3095 -211.7553 1102.504 -353.5554 -540.6137 907.2378 -309.3013 -317.4923 907.1362 -308.6934 -62.52428 872.4767 -1056.84 -60.61779 1248.918 -1059.71 -161.1194 990.414 -394.2932 -539.3646 1120.196 -292.6633 -563.0651 862.0471 -292.5269 -297.8034 1106.07 -296.8245 -563.0712 1262.047 -290.0269 -159.064 874.9712 -395.9125 -188.2135 1260.894 -368.8084 -151.5503 1237.604 -405.3227</float_array>
          <technique_common>
            <accessor source="#imagetostl_mesh0_001-mesh-positions-array" count="27" stride="3">
              <param name="X" type="float"/>
              <param name="Y" type="float"/>
              <param name="Z" type="float"/>
            </accessor>
          </technique_common>
        </source>
        <source id="imagetostl_mesh0_001-mesh-normals">
          <float_array id="imagetostl_mesh0_001-mesh-normals-array" count="243">0.8807772 0.001665413 0.4735282 0.8738231 6.44055e-4 0.4862437 0.9931889 6.4125e-5 0.1165151 -0.02874773 0.2900255 -0.9565871 -0.002275168 0.895631 -0.4447921 -0.02886831 -0.8049746 -0.5926066 0.007780134 -0.06744837 -0.9976925 -0.02261024 -0.2806641 0.9595398 0.01575469 0.1374524 0.9903831 -0.5065674 0.002288222 0.8621973 -0.5404267 -0.001243233 -0.8413902 -0.5429251 -0.001222968 -0.8397804 -0.5376407 -0.001263976 -0.8431732 0.01236009 -0.03107953 -0.9994406 -0.02816504 -0.2740727 -0.9612964 -0.02652275 0.8103701 -0.5853178 -0.006581425 -0.8868321 -0.462045 -0.00212115 0.912858 0.4082721 0.02686047 0.1703129 0.9850239 -0.8757393 0.00101751 -0.4827833 -0.8743312 -0.001673579 -0.4853269 -0.8794957 0.002132713 -0.4759022 -0.8784732 -0.00184971 -0.477788 0.1417778 -0.006796717 0.9898753 -0.999848 0.00606662 0.01635122 0.5296339 0.03783404 0.8473822 0.9885276 -0.01248627 0.1505233 0.9894903 -0.003908991 0.1445466 0.9886505 -0.01286059 0.1496829 0.9836284 0.06988304 0.1661074 0.9851998 0.03915613 0.1668781 0.9873191 0.01033055 0.1584125 0.9796971 0.08599841 0.1811021 0.4177566 -0.03883349 -0.9077287 -0.03908306 -0.3983976 -0.9163798 -0.08116632 -0.3100706 -0.9472425 -0.08172994 -0.3094369 -0.9474013 -0.07361602 0.006231784 -0.9972672 -0.6431516 -0.1215366 0.7560324 -0.1386544 0.7289155 -0.6704157 -0.137699 0.7301345 -0.6692852 0.1973896 0.2949537 0.9349009 0.1922711 0.285152 0.9389995 0.1946324 0.2855502 0.9383919 -0.5634247 0.00414586 -0.8261571 -0.5640314 0.01538169 -0.8256102 -0.5468328 0.0304563 -0.8366878 0.5473785 -0.01741856 0.8367039 0.5634744 -0.01835256 0.8259296 0.568425 -0.01994061 0.8224934 0.5685636 -0.01366233 0.8225259 -0.9893521 0.01674723 -0.1445749 -0.9904845 0.003967344 -0.1375675 0.9903804 -0.01695674 0.1373285 0.9899739 -0.01700669 0.1402239 -0.6537682 0.03521859 0.755875 0.006545901 -1.11624e-4 0.9999786 0.005869269 -0.5579794 -0.8298341 0.87843 0.01011574 0.477764 0.861203 0.001688539 0.5082584 0.8838948 -0.003393769 0.4676737 0.8852272 -0.004890918 0.4651332 0.8829271 -0.002781569 0.469502 -0.8709525 0.003741025 -0.4913531 -0.8721835 0.002648353 -0.489172 -0.8741333 0.006614506 -0.4856413 -0.8921069 -0.002292215 -0.4518187 -0.8950987 -0.007588148 -0.4458037 -0.8945426 0.00179702 -0.4469792 -0.8727089 -0.01774156 -0.4879186 -0.8729243 -0.01873683 -0.4874958 -0.8736836 -0.01744639 -0.4861817 0.6832379 -0.001195728 -0.730195 -0.03010576 -0.6433495 -0.7649806 0.7164649 0.004370868 -0.6976095 -0.7195176 0.001145362 0.6944733 -0.686756 -0.004553556 0.7268738 -0.08125233 -0.02573204 -0.9963614 -0.02397143 0.06176304 -0.997803 -0.02105653 0.06012922 -0.9979685 -0.01970851 0.06046915 -0.9979755</float_array>
          <technique_common>
            <accessor source="#imagetostl_mesh0_001-mesh-normals-array" count="81" stride="3">
              <param name="X" type="float"/>
              <param name="Y" type="float"/>
              <param name="Z" type="float"/>
            </accessor>
          </technique_common>
        </source>
        <vertices id="imagetostl_mesh0_001-mesh-vertices">
          <input semantic="POSITION" source="#imagetostl_mesh0_001-mesh-positions"/>
        </vertices>
        <triangles material="mat0-material" count="55">
          <input semantic="VERTEX" source="#imagetostl_mesh0_001-mesh-vertices" offset="0"/>
          <input semantic="NORMAL" source="#imagetostl_mesh0_001-mesh-normals" offset="1"/>
          <p>1 0 3 0 0 0 0 1 3 1 2 1 3 2 4 2 2 2 0 3 5 3 6 3 7 4 0 4 6 4 8 5 1 5 10 5 10 6 9 6 8 6 8 7 12 7 10 7 9 8 12 8 8 8 8 9 5 9 11 9 3 10 2 11 13 12 7 13 5 13 6 13 12 14 8 14 1 14 0 15 5 15 7 15 10 16 12 16 1 16 9 17 10 17 1 17 9 18 1 18 8 18 1 19 0 20 2 21 3 22 1 19 2 21 4 23 13 23 2 23 3 24 13 24 4 24 14 25 8 25 11 25 18 26 24 27 17 28 18 29 19 30 24 31 18 29 25 32 19 30 20 33 21 33 3 33 25 34 22 34 20 34 25 35 20 35 3 36 20 37 21 37 23 37 20 38 23 38 3 38 25 39 3 40 23 39 25 41 23 42 22 43 22 44 25 45 24 45 22 46 24 46 5 46 25 47 5 47 24 47 5 48 25 49 22 50 26 51 17 51 24 51 18 52 17 52 26 52 24 53 18 54 26 53 11 55 14 55 5 55 5 56 14 56 8 56 10 57 9 57 12 57 13 58 2 58 0 58 1 59 13 59 0 59 1 60 3 61 13 62 2 63 4 64 0 65 4 66 1 67 0 68 3 69 1 70 4 71 2 72 3 72 21 72 8 73 3 73 1 73 3 74 23 74 21 74 23 75 3 75 2 75 23 76 2 76 21 76 11 77 3 77 8 77 0 78 3 79 11 80</p>
        </triangles>
      </mesh>
    </geometry>
  </library_geometries>
  <library_visual_scenes>
    <visual_scene id="Scene" name="Scene">
      <node id="imagetostl_mesh5" name="imagetostl_mesh5" type="NODE">
        <matrix sid="transform">0.007585785 1.09624e-4 1.01639e-11 4.591918 -1.09624e-4 0.007585785 3.31585e-10 -8.164673 5.37151e-12 3.31697e-10 -0.007586578 -0.07787519 0 0 0 1</matrix>
        <instance_geometry url="#imagetostl_mesh5_001-mesh" name="imagetostl_mesh5">
          <bind_material>
            <technique_common>
              <instance_material symbol="mat5-material" target="#mat5-material"/>
            </technique_common>
          </bind_material>
        </instance_geometry>
      </node>
      <node id="imagetostl_mesh2" name="imagetostl_mesh2" type="NODE">
        <matrix sid="transform">0.007585785 1.09624e-4 1.01639e-11 4.591918 -1.09624e-4 0.007585785 3.31585e-10 -8.164673 5.37151e-12 3.31697e-10 -0.007586578 -0.07787519 0 0 0 1</matrix>
        <instance_geometry url="#imagetostl_mesh2_001-mesh" name="imagetostl_mesh2">
          <bind_material>
            <technique_common>
              <instance_material symbol="mat2-material" target="#mat2-material"/>
            </technique_common>
          </bind_material>
        </instance_geometry>
      </node>
      <node id="imagetostl_mesh4" name="imagetostl_mesh4" type="NODE">
        <matrix sid="transform">0.007585785 1.09624e-4 1.01639e-11 4.591918 -1.09624e-4 0.007585785 3.31585e-10 -8.164673 5.37151e-12 3.31697e-10 -0.007586578 -0.07787519 0 0 0 1</matrix>
        <instance_geometry url="#imagetostl_mesh4_001-mesh" name="imagetostl_mesh4">
          <bind_material>
            <technique_common>
              <instance_material symbol="mat4-material" target="#mat4-material"/>
            </technique_common>
          </bind_material>
        </instance_geometry>
      </node>
      <node id="imagetostl_mesh3" name="imagetostl_mesh3" type="NODE">
        <matrix sid="transform">0.007585785 1.09624e-4 1.01639e-11 4.591918 -1.09624e-4 0.007585785 3.31585e-10 -8.164673 5.37151e-12 3.31697e-10 -0.007586578 -0.07787519 0 0 0 1</matrix>
        <instance_geometry url="#imagetostl_mesh3_001-mesh" name="imagetostl_mesh3">
          <bind_material>
            <technique_common>
              <instance_material symbol="mat3-material" target="#mat3-material"/>
            </technique_common>
          </bind_material>
        </instance_geometry>
      </node>
      <node id="imagetostl_mesh1" name="imagetostl_mesh1" type="NODE">
        <matrix sid="transform">0.007585785 1.09624e-4 1.01639e-11 4.591918 -1.09624e-4 0.007585785 3.31585e-10 -8.164673 5.37151e-12 3.31697e-10 -0.007586578 -0.07787519 0 0 0 1</matrix>
        <instance_geometry url="#imagetostl_mesh1_001-mesh" name="imagetostl_mesh1">
          <bind_material>
            <technique_common>
              <instance_material symbol="mat1-material" target="#mat1-material"/>
            </technique_common>
          </bind_material>
        </instance_geometry>
      </node>
      <node id="imagetostl_mesh0" name="imagetostl_mesh0" type="NODE">
        <matrix sid="transform">0.007585785 1.09624e-4 1.01639e-11 4.591918 -1.09624e-4 0.007585785 3.31585e-10 -8.164673 5.37151e-12 3.31697e-10 -0.007586578 -0.07787519 0 0 0 1</matrix>
        <instance_geometry url="#imagetostl_mesh0_001-mesh" name="imagetostl_mesh0">
          <bind_material>
            <technique_common>
              <instance_material symbol="mat0-material" target="#mat0-material"/>
            </technique_common>
          </bind_material>
        </instance_geometry>
      </node>
    </visual_scene>
  </library_visual_scenes>
  <scene>
    <instance_visual_scene url="#Scene"/>
  </scene>
</COLLADA>